<svg width="33" height="19" viewBox="0 0 33 19" fill="none" xmlns="http://www.w3.org/2000/svg">
<path d="M3.525 15.0056C1.9573 15.4891 0.803981 15.8085 0 15.8085V19C1.62454 19 3.45971 18.4339 4.81828 18.0149L4.81828 18.0149L4.88472 17.9944L5.04472 17.945C5.7343 17.7322 6.3413 17.5448 6.89929 17.4036C7.51734 17.2471 7.91183 17.1915 8.14078 17.1915C9.45571 17.1915 10.2834 17.4799 11.4411 17.8875C12.6571 18.3155 14.156 18.8404 16.4108 18.8404C18.6298 18.8404 20.3126 18.3345 21.635 17.9043L21.8669 17.8287C23.1197 17.4202 23.8213 17.1915 24.6162 17.1915C25.9671 17.1915 26.7541 17.4883 27.8527 17.9025L27.9283 17.931C29.1549 18.3933 30.6508 18.9304 33 18.8403L32.9015 15.6489L32.8523 15.651C31.4179 15.711 30.6002 15.428 29.5418 15.0291L29.3955 14.9738C28.2626 14.5453 26.8211 14 24.6162 14C23.0378 14 21.6429 14.4621 20.5528 14.8233L20.5526 14.8234C20.4349 14.8624 20.3207 14.9002 20.2103 14.9362C18.9985 15.3304 17.8745 15.6489 16.4108 15.6489C14.9829 15.6489 14.0912 15.3494 12.9651 14.953L12.877 14.9219C11.7079 14.5099 10.2612 14 8.14078 14C7.32145 14 6.48108 14.1705 5.7598 14.3531C5.0837 14.5243 4.36765 14.7454 3.70675 14.9495L3.525 15.0056Z" fill="#00A9A4"/>
<path d="M3.525 8.00564C1.9573 8.48905 0.803981 8.80851 0 8.80851V12C1.62454 12 3.45971 11.4339 4.81828 11.0149L4.81828 11.0149L4.88472 10.9944L5.04472 10.945C5.7343 10.7322 6.3413 10.5448 6.89929 10.4036C7.51734 10.2471 7.91183 10.1915 8.14078 10.1915C9.45571 10.1915 10.2834 10.4799 11.4411 10.8875C12.6571 11.3155 14.156 11.8404 16.4108 11.8404C18.6298 11.8404 20.3126 11.3345 21.635 10.9043L21.8669 10.8287C23.1197 10.4202 23.8213 10.1915 24.6162 10.1915C25.9671 10.1915 26.7541 10.4883 27.8527 10.9025L27.9283 10.931C29.1549 11.3933 30.6508 11.9304 33 11.8403L32.9015 8.64894L32.8523 8.651C31.4179 8.71104 30.6002 8.42798 29.5418 8.0291L29.3955 7.97383C28.2626 7.54528 26.8211 7 24.6162 7C23.0378 7 21.6429 7.46214 20.5528 7.82331L20.5526 7.82339C20.4349 7.86239 20.3207 7.90022 20.2103 7.93615C18.9985 8.33039 17.8745 8.64894 16.4108 8.64894C14.9829 8.64894 14.0912 8.34938 12.9651 7.95297L12.877 7.92192C11.7079 7.5099 10.2612 7 8.14078 7C7.32145 7 6.48108 7.17046 5.7598 7.35308C5.0837 7.52425 4.36765 7.74541 3.70675 7.94953L3.525 8.00564Z" fill="#00A9A4"/>
<path d="M3.525 1.00564C1.9573 1.48905 0.803981 1.80851 0 1.80851V5C1.62454 5 3.45971 4.43392 4.81828 4.01486L4.81828 4.01485L4.88472 3.99436L5.04472 3.945C5.7343 3.73218 6.3413 3.54485 6.89929 3.40357C7.51734 3.2471 7.91183 3.19149 8.14078 3.19149C9.45571 3.19149 10.2834 3.47995 11.4411 3.88746C12.6571 4.31552 14.156 4.84043 16.4108 4.84043C18.6298 4.84043 20.3126 4.33451 21.635 3.90428L21.8669 3.82871C23.1197 3.42023 23.8213 3.19149 24.6162 3.19149C25.9671 3.19149 26.7541 3.48826 27.8527 3.9025L27.9283 3.93101C29.1549 4.39327 30.6508 4.93041 33 4.84034L32.9015 1.64894L32.8523 1.651C31.4179 1.71104 30.6002 1.42798 29.5418 1.0291L29.3955 0.973831C28.2626 0.545279 26.8211 0 24.6162 0C23.0378 0 21.6429 0.46214 20.5528 0.823311L20.5526 0.823394C20.4349 0.862394 20.3207 0.900218 20.2103 0.936152C18.9985 1.33039 17.8745 1.64894 16.4108 1.64894C14.9829 1.64894 14.0912 1.34938 12.9651 0.95297L12.877 0.921917C11.7079 0.509903 10.2612 0 8.14078 0C7.32145 0 6.48108 0.170459 5.7598 0.353075C5.0837 0.524251 4.36765 0.745409 3.70675 0.949533L3.525 1.00564Z" fill="#00A9A4"/>
</svg>
