<svg width="43" height="89" viewBox="0 0 43 89" fill="none" xmlns="http://www.w3.org/2000/svg">
<path fill-rule="evenodd" clip-rule="evenodd" d="M41.46 70.2964C43.0367 68.7318 43.0367 66.1823 41.46 64.6178L24.1388 47.4293C22.5792 45.8817 20.0633 45.8816 18.5037 47.4293L1.18247 64.6178C-0.394158 66.1823 -0.394158 68.7318 1.18247 70.2964L18.5037 87.4849C20.0633 89.0325 22.5792 89.0325 24.1388 87.4849L41.46 70.2964ZM20.8344 55.9558C22.4465 55.9558 23.7533 54.6301 23.7533 52.9949C23.7533 51.3596 22.4465 50.034 20.8344 50.034C19.2223 50.034 17.9155 51.3596 17.9155 52.9949C17.9155 54.6301 19.2223 55.9558 20.8344 55.9558Z" fill="#A6CE38"/>
<path d="M27.4403 39.8471C31.9076 35.2943 31.9076 27.8884 27.4403 23.3424C26.4476 22.3306 25.3093 21.528 24.0452 20.9479V5.1649C24.0452 4.94232 23.9592 4.71974 23.8003 4.5646L19.5647 0.247875C19.2404 -0.0826249 18.711 -0.0826249 18.3867 0.247875L14.8923 3.80918C14.7335 3.97105 14.6474 4.18689 14.6474 4.40947V6.80391C14.6474 7.02649 14.7335 7.24907 14.8923 7.4042L16.3351 8.87459L14.8923 10.345C14.568 10.6755 14.568 11.2151 14.8923 11.5456L15.4681 12.1324L14.8923 12.7192C14.568 13.0497 14.568 13.5893 14.8923 13.9198L16.163 15.2148L14.8857 16.5165C14.7269 16.6784 14.6408 16.8943 14.6408 17.1168V20.9412C13.3768 21.5213 12.2318 22.3239 11.2391 23.3356C6.77186 27.8884 6.77186 35.2943 11.2391 39.8404C15.713 44.3932 22.9731 44.3932 27.4403 39.8471ZM12.4238 24.543C13.39 23.5582 14.5217 22.8028 15.7791 22.3037C16.1034 22.1755 16.3086 21.8585 16.3086 21.5213C16.3086 21.5145 16.3086 21.5145 16.3086 21.5078V17.4676L17.9234 15.8218C18.2477 15.4913 18.2477 14.9517 17.9234 14.6212L16.6527 13.3262L17.2285 12.7394C17.5528 12.4089 17.5528 11.8693 17.2285 11.5388L16.6527 10.952L18.0955 9.48163C18.4198 9.15113 18.4198 8.61154 18.0955 8.28104L16.302 6.45317V4.7602L18.9625 2.04876L19.803 2.89187V17.5957C19.803 18.0207 20.1405 18.3646 20.5508 18.3579C20.9678 18.3579 21.2987 18.0139 21.3053 17.589V4.41622L22.3708 5.50214V21.501C22.3708 21.5078 22.3708 21.5078 22.3708 21.5078C22.3774 21.845 22.576 22.162 22.9003 22.2902C24.1643 22.7893 25.2894 23.5447 26.2557 24.5295C30.0677 28.4145 30.0677 34.7412 26.2557 38.633C22.4436 42.5248 16.2358 42.5181 12.4171 38.633C8.6117 34.7547 8.6117 28.428 12.4238 24.543Z" fill="#4E4B4B"/>
<path d="M21.5569 38.869C22.7746 37.6279 22.7746 35.6045 21.5569 34.3634C20.3391 33.1224 18.3537 33.1224 17.136 34.3634C15.9182 35.6045 15.9182 37.6279 17.136 38.869C18.3537 40.1101 20.3325 40.1101 21.5569 38.869ZM18.314 35.564C18.8831 34.9839 19.8097 34.9839 20.3722 35.564C20.9414 36.1441 20.9414 37.0883 20.3722 37.6617C19.8031 38.2417 18.8765 38.2417 18.314 37.6617C17.7448 37.0883 17.7448 36.1441 18.314 35.564Z" fill="#4E4B4B"/>
<path d="M21.0837 52.9681C20.9043 52.9681 20.7248 52.9003 20.5852 52.7578C20.3127 52.4797 20.3193 52.0253 20.5919 51.754C20.6184 51.7268 23.2905 48.9526 23.3304 44.4895C23.3703 40.1145 19.7012 37.8761 19.6679 37.849C19.3356 37.6523 19.2226 37.2114 19.4153 36.8723C19.6081 36.5331 20.0402 36.4178 20.3725 36.6145C20.419 36.6417 21.5025 37.2928 22.5727 38.5816C24.0018 40.2976 24.7462 42.3393 24.7263 44.4963C24.6798 49.5699 21.7019 52.6357 21.5756 52.7646C21.436 52.9003 21.2632 52.9681 21.0837 52.9681Z" fill="#4E4B4B"/>
<path d="M17.0533 47.3283C16.6972 47.3283 16.3939 46.9925 16.361 46.5607C16.3346 46.2008 16.3214 44.8266 16.3214 44.4668C16.3148 44.003 16.6247 43.6271 17.0071 43.6191H17.0137C17.3961 43.6191 17.6994 43.987 17.706 44.4508C17.706 44.7706 17.7192 46.1049 17.739 46.4247C17.7719 46.8885 17.4884 47.2963 17.106 47.3283C17.0928 47.3283 17.073 47.3283 17.0533 47.3283Z" fill="#4E4B4B"/>
<path d="M17.2813 73.115C17.7013 75.155 19.3013 76.135 21.3413 76.135C24.4213 76.135 25.4413 74.135 25.4413 72.055C25.4413 70.555 24.7013 69.355 23.2013 69.015V68.895C24.4813 68.675 25.2213 67.355 25.2213 65.915C25.2213 63.695 23.6013 62.535 21.3413 62.535C19.8813 62.535 17.9813 63.215 17.5213 65.735L19.2013 66.215C19.4613 64.635 20.5413 64.175 21.3013 64.175C22.3213 64.175 23.2613 64.675 23.2613 66.095C23.2613 67.015 22.8613 68.095 21.4213 68.095H20.6613V69.775H21.5213C22.6413 69.775 23.4413 70.535 23.4413 71.975C23.4413 73.655 22.5013 74.455 21.3213 74.455C20.1613 74.455 19.2613 73.835 18.9813 72.535L17.2813 73.115Z" fill="white"/>
</svg>
