<svg width="190" height="40" viewBox="0 0 150 32" fill="none" xmlns="http://www.w3.org/2000/svg">
<path d="M10.8393 13.7549H4.89014L4.00094 15.6521H0.232422V15.0829L7.02846 0.411133H8.70101L15.5182 15.0829V15.6521H11.7285L10.8393 13.7549ZM7.85415 6.52438L6.13926 10.4875H9.59021L7.85415 6.52438Z" fill="#00A9A4"/>
<path d="M18.5879 15.4624V0.411133C19.8793 0.411133 21.1708 0.411133 22.5258 0.411133V6.10278H22.801C26.6754 6.10278 26.4637 3.2148 26.4637 0.411133C27.7763 0.411133 29.0889 0.411133 30.4439 0.411133C30.4439 3.48884 30.5286 6.31358 27.5222 8.23188L31.6295 14.851V15.4624H27.3317L24.0078 9.64425C23.4997 9.72857 23.0127 9.72857 22.5258 9.72857V15.4624C21.192 15.4624 19.9005 15.4624 18.5879 15.4624Z" fill="#00A9A4"/>
<path d="M44.9252 7.64163C46.1531 8.27404 46.7459 9.39129 46.7459 10.7193C46.7248 13.3333 45.1369 15.4624 42.0459 15.4624H34.9746V0.411133H41.4319C44.0148 0.411133 46.1108 2.43483 46.1108 5.02769C46.1108 5.93414 45.645 7.03031 44.9252 7.64163ZM38.6796 3.8472V6.27142H41.1143C42.6387 6.27142 42.6387 3.8472 41.0932 3.8472H38.6796ZM38.6796 9.47561V12.0263H41.7706C43.3162 12.0263 43.295 9.47561 41.7495 9.47561H38.6796Z" fill="#00A9A4"/>
<path d="M59.5561 13.7549H53.6069L52.7177 15.6521H48.9492V15.0829L55.7241 0.411133H57.3966L64.2139 15.0829V15.6521H60.4453L59.5561 13.7549ZM56.5498 6.52438L54.8349 10.4875H58.2858L56.5498 6.52438Z" fill="#00A9A4"/>
<path d="M80.6206 0.411133H81.9967V15.5045C80.6841 15.5045 79.3715 15.5045 78.0377 15.5045V8.80104L74.8196 12.1528H74.3962L71.1993 8.80104V15.5045C69.8867 15.5045 68.574 15.5045 67.2402 15.5045V0.411133H68.6587L74.5656 6.94599L80.6206 0.411133Z" fill="#4E4B4B"/>
<path d="M95.6538 13.7549H89.7046L88.8154 15.6521H85.0469V15.104L91.8217 0.411133H93.4943L100.312 15.104V15.6521H96.543L95.6538 13.7549ZM92.6474 6.52438L90.9325 10.4875H94.3835L92.6474 6.52438Z" fill="#4E4B4B"/>
<path d="M103.381 15.4624C103.381 10.4453 103.381 5.44929 103.381 0.411133C105.562 0.411133 107.806 0.411133 110.029 0.411133C117.269 0.432213 117.269 11.6047 110.029 11.6047H107.234V15.4624C105.943 15.4624 104.651 15.4624 103.381 15.4624ZM110.008 3.8472C109.097 3.82612 108.123 3.8472 107.255 3.8472C107.255 5.06985 107.255 6.92491 107.255 8.14756H110.008C112.125 8.14756 112.252 3.86828 110.008 3.8472Z" fill="#4E4B4B"/>
<path d="M120.847 15.5467H119.471V0.474373C120.783 0.474373 122.096 0.474373 123.43 0.474373V7.85243L131.051 0.411133H132.449V15.5256C131.136 15.5256 129.802 15.5256 128.447 15.5256V8.12647L120.847 15.5467Z" fill="#4E4B4B"/>
<path d="M150 15.4624C148.687 15.4624 147.374 15.4624 146.041 15.4624V9.41237H141.383V15.4624C140.07 15.4624 138.736 15.4624 137.424 15.4624V0.411133C138.715 0.411133 140.049 0.411133 141.383 0.411133V5.8709H146.041V0.411133C147.353 0.411133 148.666 0.411133 150 0.411133V15.4624Z" fill="#4E4B4B"/>
<path d="M64.2766 23.0514C63.6414 22.9249 62.8792 22.8406 61.99 22.8406C56.8242 22.8406 56.8242 25.3491 51.6584 25.3491C46.4925 25.3491 46.4925 22.8406 41.3267 22.8406C36.1609 22.8406 36.1609 25.3491 30.995 25.3491C25.8292 25.3491 25.8292 22.8406 20.6633 22.8406C15.4975 22.8406 15.4975 25.3491 10.3317 25.3491C5.16584 25.3491 5.16584 22.8406 0 22.8406V27.8787C5.16584 27.8787 5.16584 30.4084 10.3317 30.4084C15.4975 30.4084 15.4975 27.8787 20.6633 27.8787C25.8292 27.8787 25.8292 30.4084 30.995 30.4084C36.1609 30.4084 36.1609 27.8787 41.3267 27.8787C46.4925 27.8787 46.4925 30.4084 51.6584 30.4084C56.8242 30.4084 56.8242 27.8787 61.99 27.8787C62.9004 27.8787 63.6414 27.9631 64.2766 28.0895V23.0514Z" fill="#00A9A4"/>
<path d="M67.5156 22.9248H68.8918V25.3701H68.9129L70.8607 22.9248H72.5121L70.2044 25.6863L72.6179 28.5321H70.9666L68.9129 26.0868H68.8918V28.5321H67.5156V22.9248Z" fill="#4E4B4B"/>
<path d="M78.0802 24.3792C78.0802 24.6532 78.0167 24.9062 77.8685 25.117C77.7203 25.3278 77.5086 25.4753 77.2545 25.5807V25.6018C77.5933 25.6861 77.8473 25.8337 78.0167 26.0445C78.1861 26.2553 78.2708 26.5083 78.2708 26.8034C78.2708 27.1618 78.1649 27.478 77.9532 27.752C77.7415 28.026 77.4239 28.2368 76.9793 28.3633C76.8099 28.4055 76.6406 28.4476 76.4288 28.4687C76.2171 28.4898 75.9631 28.5109 75.6667 28.5109H73.4648V22.9036H75.9419C76.1536 22.9036 76.3442 22.9246 76.5135 22.9457C76.6829 22.9668 76.8311 23.009 76.9793 23.0511C77.3392 23.1565 77.6356 23.3462 77.8262 23.5781C77.9744 23.7889 78.0802 24.063 78.0802 24.3792ZM75.836 25.1381C76.0689 25.1381 76.2383 25.117 76.3442 25.0537C76.45 24.9905 76.5135 24.9273 76.577 24.8429C76.6194 24.7586 76.6406 24.6532 76.6406 24.5478C76.6406 24.337 76.5559 24.1684 76.3653 24.0841C76.2595 24.0208 76.0901 23.9997 75.836 23.9997H74.7775V25.1591H75.836V25.1381ZM75.7937 27.4569C75.9419 27.4569 76.0689 27.4569 76.1748 27.4358C76.2806 27.4147 76.3653 27.3936 76.4288 27.3726C76.577 27.3093 76.6617 27.2461 76.7464 27.1407C76.8099 27.0353 76.8523 26.9299 76.8523 26.7823C76.8523 26.6558 76.8311 26.5504 76.7676 26.4661C76.7041 26.3818 76.6194 26.2975 76.5135 26.2553C76.45 26.2342 76.3865 26.2132 76.3018 26.1921C76.2171 26.171 76.1324 26.171 76.0054 26.171H74.841V27.4358H75.7937V27.4569Z" fill="#4E4B4B"/>
<path d="M82.7596 27.9207H82.7385C82.6538 28.0051 82.5691 28.0894 82.4632 28.1737C82.3574 28.258 82.2303 28.3424 82.0821 28.4056C81.9339 28.4899 81.7857 28.5321 81.6164 28.5953C81.447 28.6375 81.2564 28.6586 81.0659 28.6586C80.7907 28.6586 80.5578 28.6164 80.3249 28.5321C80.092 28.4478 79.9015 28.3213 79.7321 28.1737C79.5627 28.0261 79.4357 27.8364 79.3298 27.6045C79.2452 27.3727 79.1816 27.1408 79.1816 26.8667C79.1816 26.5716 79.2452 26.2976 79.351 26.0657C79.4569 25.8338 79.6051 25.623 79.8168 25.4544C80.0073 25.2857 80.2402 25.1592 80.5154 25.0749C80.7907 24.9906 81.0871 24.9484 81.4258 24.9484C81.6799 24.9484 81.8916 24.9695 82.1033 24.9906C82.315 25.0117 82.4844 25.0538 82.6538 25.096V24.8641C82.6538 24.7376 82.6326 24.6112 82.5903 24.4847C82.5479 24.3582 82.4844 24.2528 82.3785 24.1685C82.2727 24.0842 82.1457 23.9998 81.9975 23.9366C81.8281 23.8734 81.6375 23.8523 81.4258 23.8523C81.1506 23.8523 80.8754 23.8734 80.579 23.9366C80.3037 23.9998 80.0073 24.0842 79.6686 24.2106V23.1355C79.9438 23.0091 80.2614 22.9247 80.579 22.8615C80.8965 22.7983 81.2353 22.7561 81.574 22.7561C81.9763 22.7561 82.3362 22.7983 82.6538 22.9037C82.9713 23.0091 83.2254 23.1355 83.4159 23.3253C83.6277 23.4939 83.7759 23.7047 83.8817 23.9366C83.9876 24.1685 84.0299 24.4425 84.0299 24.7166V26.8246C84.0299 27.204 84.0299 27.5202 84.0511 27.7732C84.0511 28.0472 84.0723 28.2791 84.0723 28.4899H82.8231L82.7596 27.9207ZM82.6538 26.1289C82.5267 26.1079 82.3785 26.0657 82.2092 26.0446C82.0398 26.0235 81.8704 26.0025 81.7011 26.0025C81.3623 26.0025 81.0871 26.0657 80.8965 26.1922C80.706 26.3187 80.6001 26.5295 80.6001 26.8035C80.6001 26.93 80.6213 27.0354 80.6636 27.1408C80.706 27.2251 80.7695 27.3094 80.8542 27.3727C80.9389 27.4359 81.0236 27.4781 81.1082 27.5202C81.1929 27.5624 81.32 27.5624 81.4258 27.5624C81.574 27.5624 81.7011 27.5413 81.8281 27.4991C81.9551 27.457 82.061 27.4148 82.1668 27.3516C82.2727 27.2883 82.3574 27.2251 82.4421 27.1619C82.5267 27.0986 82.5903 27.0354 82.6538 26.9511V26.1289Z" fill="#4E4B4B"/>
<path d="M88.39 28.6586C88.0936 28.6586 87.8184 28.5954 87.5643 28.49C87.3103 28.3846 87.1197 28.237 86.9504 28.0895H86.9292C86.9292 28.1738 86.9292 28.2792 86.9504 28.4267C86.9504 28.5743 86.9504 28.7219 86.9504 28.8905V31.2304H85.5742V22.9248H86.781L86.8445 23.5572H86.8657C87.0351 23.3253 87.2468 23.1567 87.522 23.0091C87.7972 22.8616 88.0936 22.7983 88.4535 22.7983C88.7499 22.7983 89.0675 22.8616 89.3639 22.967C89.6603 23.0724 89.9144 23.2621 90.1473 23.494C90.3801 23.7259 90.5495 24.021 90.6977 24.3794C90.8247 24.7377 90.9094 25.1593 90.9094 25.6652C90.9094 26.1922 90.8459 26.6349 90.6977 27.0144C90.5495 27.3938 90.359 27.71 90.1261 27.963C89.8932 28.2159 89.618 28.4057 89.3216 28.5111C89.004 28.5954 88.7076 28.6586 88.39 28.6586ZM88.2207 23.8734C87.9878 23.8734 87.7549 23.9367 87.5432 24.0421C87.3315 24.1475 87.1409 24.3161 86.9715 24.5058V27.0144C87.0351 27.0776 87.0986 27.1409 87.1833 27.2041C87.2679 27.2673 87.3526 27.3306 87.4585 27.3938C87.5643 27.4571 87.6702 27.4992 87.7972 27.5203C87.9243 27.5625 88.0513 27.5625 88.1783 27.5625C88.39 27.5625 88.5806 27.5203 88.7499 27.436C88.9193 27.3517 89.0463 27.2252 89.1734 27.0565C89.2792 26.8879 89.3639 26.6982 89.4274 26.4663C89.4909 26.2344 89.5121 25.9814 89.5121 25.7074C89.5121 25.4123 89.4909 25.1382 89.4274 24.9064C89.3639 24.6745 89.2792 24.4848 89.1734 24.3372C89.0675 24.1896 88.9405 24.0632 88.7711 23.9999C88.5806 23.9156 88.4112 23.8734 88.2207 23.8734Z" fill="#4E4B4B"/>
<path d="M93.282 24.063H91.4824V22.9036H96.4577V24.063H94.6581V28.5109H93.282V24.063Z" fill="#4E4B4B"/>
<path d="M100.629 27.9207H100.608C100.523 28.0051 100.438 28.0894 100.332 28.1737C100.227 28.258 100.099 28.3424 99.9513 28.4056C99.8031 28.4899 99.6549 28.5321 99.4855 28.5953C99.3161 28.6375 99.1256 28.6586 98.935 28.6586C98.6598 28.6586 98.4269 28.6164 98.194 28.5321C97.9612 28.4478 97.7706 28.3213 97.6012 28.1737C97.4319 28.0261 97.3048 27.8364 97.199 27.6045C97.1143 27.3727 97.0508 27.1408 97.0508 26.8667C97.0508 26.5716 97.1143 26.2976 97.2202 26.0657C97.326 25.8338 97.4742 25.623 97.6859 25.4544C97.8765 25.2857 98.1094 25.1592 98.3846 25.0749C98.6598 24.9906 98.9562 24.9484 99.295 24.9484C99.549 24.9484 99.7607 24.9695 99.9724 24.9906C100.184 25.0117 100.354 25.0538 100.523 25.096V24.8641C100.523 24.7376 100.502 24.6112 100.459 24.4847C100.417 24.3582 100.354 24.2528 100.248 24.1685C100.142 24.0842 100.015 23.9998 99.8666 23.9366C99.6972 23.8734 99.5067 23.8523 99.295 23.8523C99.0197 23.8523 98.7445 23.8734 98.4481 23.9366C98.1729 23.9998 97.8765 24.0842 97.5377 24.2106V23.1355C97.813 23.0091 98.1305 22.9247 98.4481 22.8615C98.7657 22.7983 99.1044 22.7561 99.4432 22.7561C99.8454 22.7561 100.205 22.7983 100.523 22.9037C100.84 23.0091 101.095 23.1355 101.285 23.3253C101.497 23.4939 101.645 23.7047 101.751 23.9366C101.857 24.1685 101.899 24.4425 101.899 24.7166V26.8246C101.899 27.204 101.899 27.5202 101.92 27.7732C101.92 28.0472 101.941 28.2791 101.941 28.4899H100.692L100.629 27.9207ZM100.523 26.1289C100.396 26.1079 100.248 26.0657 100.078 26.0446C99.9089 26.0235 99.7396 26.0025 99.5702 26.0025C99.2314 26.0025 98.9562 26.0657 98.7657 26.1922C98.5751 26.3187 98.4693 26.5295 98.4693 26.8035C98.4693 26.93 98.4904 27.0354 98.5328 27.1408C98.5751 27.2251 98.6386 27.3094 98.7233 27.3727C98.808 27.4359 98.8927 27.4781 98.9774 27.5202C99.0621 27.5624 99.1891 27.5624 99.295 27.5624C99.4432 27.5624 99.5702 27.5413 99.6972 27.4991C99.8242 27.457 99.9301 27.4148 100.036 27.3516C100.142 27.2883 100.227 27.2251 100.311 27.1619C100.396 27.0986 100.459 27.0354 100.523 26.9511V26.1289Z" fill="#4E4B4B"/>
<path d="M108.271 22.9246V28.532H106.895V24.063H105.9C105.794 24.8008 105.688 25.4121 105.561 25.918C105.434 26.424 105.307 26.8456 105.159 27.1828C105.01 27.5201 104.862 27.7942 104.714 27.9839C104.566 28.1736 104.396 28.3212 104.248 28.4055C104.1 28.4898 103.931 28.5531 103.761 28.5741C103.592 28.5952 103.423 28.6163 103.253 28.6163C103.19 28.6163 103.105 28.6163 103.041 28.6163C102.957 28.6163 102.893 28.5952 102.809 28.5741V27.3515C102.914 27.3726 103.02 27.3726 103.126 27.3726C103.274 27.3726 103.38 27.3515 103.486 27.3304C103.592 27.3093 103.677 27.225 103.761 27.1407C103.846 27.0353 103.931 26.9088 104.015 26.698C104.1 26.5083 104.185 26.2342 104.269 25.918C104.354 25.5807 104.439 25.1802 104.523 24.6743C104.608 24.1895 104.693 23.5992 104.799 22.9036H108.271V22.9246Z" fill="#4E4B4B"/>
<path d="M111.531 22.9248H113.013L113.86 24.9485C114.178 25.7285 114.411 26.2976 114.538 26.656H114.559C114.665 26.3609 114.855 25.8339 115.173 25.0539L116.041 22.9248H117.544L113.924 31.2304H112.569L113.86 28.237L111.531 22.9248Z" fill="#4E4B4B"/>
<path d="M126.161 25.7285C126.161 26.1712 126.097 26.5717 125.97 26.9301C125.843 27.2884 125.653 27.6046 125.399 27.8576C125.145 28.1105 124.848 28.3213 124.51 28.4478C124.171 28.5743 123.769 28.6586 123.345 28.6586C122.9 28.6586 122.498 28.5954 122.159 28.4478C121.821 28.3003 121.503 28.1105 121.27 27.8576C121.016 27.6046 120.847 27.2884 120.72 26.9301C120.593 26.5717 120.529 26.1712 120.529 25.7285C120.529 25.2858 120.593 24.8853 120.72 24.5269C120.847 24.1686 121.037 23.8523 121.291 23.5994C121.546 23.3464 121.842 23.1356 122.181 23.0091C122.519 22.8616 122.922 22.7983 123.345 22.7983C123.79 22.7983 124.192 22.8616 124.531 23.0091C124.891 23.1567 125.187 23.3464 125.42 23.5994C125.674 23.8523 125.843 24.1686 125.97 24.5269C126.097 24.8853 126.161 25.2858 126.161 25.7285ZM124.742 25.7285C124.742 25.4334 124.7 25.1593 124.637 24.9485C124.573 24.7166 124.467 24.5269 124.34 24.3794C124.213 24.2318 124.065 24.1053 123.896 24.0421C123.726 23.9577 123.536 23.9367 123.324 23.9367C123.112 23.9367 122.943 23.9788 122.773 24.0421C122.604 24.1264 122.456 24.2318 122.329 24.3794C122.202 24.5269 122.117 24.7166 122.032 24.9485C121.969 25.1804 121.927 25.4334 121.927 25.7285C121.927 26.0236 121.969 26.2977 122.032 26.5085C122.096 26.7403 122.202 26.9301 122.329 27.0776C122.456 27.2252 122.604 27.3517 122.773 27.4149C122.943 27.4992 123.133 27.5414 123.345 27.5414C123.557 27.5414 123.747 27.4992 123.917 27.4149C124.086 27.3306 124.234 27.2252 124.361 27.0776C124.488 26.9301 124.573 26.7403 124.658 26.5085C124.7 26.2766 124.742 26.0236 124.742 25.7285Z" fill="#4E4B4B"/>
<path d="M127.007 23.1146C127.303 23.0092 127.6 22.9038 127.938 22.8617C128.277 22.7984 128.616 22.7773 128.933 22.7773C129.293 22.7773 129.632 22.8195 129.929 22.9038C130.225 22.9881 130.458 23.0935 130.67 23.2411C130.86 23.3887 131.029 23.5573 131.135 23.747C131.241 23.9368 131.284 24.1686 131.284 24.4216C131.284 24.7167 131.22 24.9486 131.072 25.1594C130.924 25.3702 130.754 25.5178 130.543 25.6232V25.6442C130.67 25.6864 130.797 25.7496 130.902 25.8129C131.008 25.8761 131.114 25.9815 131.199 26.0659C131.284 26.1713 131.347 26.2767 131.389 26.4031C131.432 26.5296 131.453 26.6772 131.453 26.8458C131.453 27.0988 131.411 27.3307 131.305 27.5415C131.199 27.7733 131.051 27.9631 130.839 28.1317C130.627 28.3004 130.352 28.4268 130.034 28.5322C129.696 28.6376 129.315 28.6798 128.849 28.6798C128.468 28.6798 128.108 28.6587 127.79 28.5955C127.473 28.5322 127.197 28.4479 126.943 28.3425V27.2463C127.24 27.3728 127.536 27.4571 127.833 27.5204C128.129 27.5836 128.404 27.6047 128.679 27.6047C128.933 27.6047 129.145 27.5836 129.315 27.5625C129.484 27.5204 129.632 27.4782 129.717 27.415C129.823 27.3517 129.886 27.2674 129.929 27.1831C129.971 27.0988 129.992 26.9934 129.992 26.888C129.992 26.5718 129.823 26.3821 129.505 26.3188C129.378 26.2977 129.188 26.2767 128.955 26.2767H127.663V25.2016H129.018C129.209 25.2016 129.357 25.1805 129.442 25.1594C129.59 25.1172 129.674 25.0329 129.738 24.9275C129.802 24.8221 129.823 24.7167 129.823 24.5902C129.823 24.3794 129.738 24.2319 129.569 24.1054C129.399 24 129.124 23.9368 128.764 23.9368C128.468 23.9368 128.171 23.9789 127.854 24.0422C127.557 24.1054 127.261 24.1897 126.986 24.274V23.1146H127.007Z" fill="#4E4B4B"/>
<path d="M135.56 27.5625C135.836 27.5625 136.111 27.5415 136.407 27.4782C136.704 27.415 137 27.3517 137.297 27.2463V28.3425C137.127 28.4268 136.852 28.4901 136.471 28.5533C136.111 28.6166 135.73 28.6587 135.328 28.6587C134.925 28.6587 134.544 28.6166 134.184 28.5112C133.824 28.4058 133.507 28.2371 133.253 28.0263C132.978 27.7944 132.766 27.4993 132.618 27.1409C132.469 26.7826 132.385 26.3399 132.385 25.8129C132.385 25.307 132.448 24.8643 132.596 24.4848C132.745 24.1054 132.935 23.7892 133.189 23.5362C133.443 23.2833 133.719 23.0935 134.036 22.9671C134.354 22.8406 134.692 22.7773 135.031 22.7773C135.391 22.7773 135.709 22.8406 136.026 22.946C136.323 23.0514 136.577 23.22 136.81 23.4519C137.021 23.6838 137.191 23.9789 137.318 24.3373C137.445 24.6956 137.508 25.1383 137.508 25.6232C137.508 25.8129 137.508 25.9815 137.487 26.108H133.761C133.782 26.361 133.846 26.5929 133.93 26.7615C134.036 26.9512 134.163 27.0988 134.311 27.2042C134.46 27.3096 134.65 27.3939 134.862 27.4571C135.074 27.5415 135.306 27.5625 135.56 27.5625ZM135.01 23.8524C134.841 23.8524 134.671 23.8946 134.544 23.9578C134.417 24.0211 134.29 24.1054 134.184 24.2108C134.078 24.3162 134.015 24.4427 133.951 24.5902C133.888 24.7378 133.846 24.8854 133.846 25.054H136.069C136.069 24.8854 136.047 24.7378 136.005 24.5902C135.963 24.4427 135.899 24.3162 135.815 24.2108C135.73 24.1054 135.624 24.0211 135.497 23.9578C135.328 23.8735 135.179 23.8524 135.01 23.8524Z" fill="#4E4B4B"/>
<path d="M141.574 28.6586C141.277 28.6586 141.002 28.5954 140.748 28.49C140.494 28.3846 140.303 28.237 140.134 28.0895H140.113C140.113 28.1738 140.113 28.2792 140.134 28.4267C140.134 28.5743 140.134 28.7219 140.134 28.8905V31.2304H138.758V22.9248H139.965L140.028 23.5572H140.049C140.219 23.3253 140.43 23.1567 140.706 23.0091C140.981 22.8616 141.277 22.7983 141.637 22.7983C141.934 22.7983 142.251 22.8616 142.547 22.967C142.844 23.0724 143.098 23.2621 143.331 23.494C143.564 23.7259 143.733 24.021 143.881 24.3794C144.008 24.7377 144.093 25.1593 144.093 25.6652C144.093 26.1922 144.029 26.6349 143.881 27.0144C143.733 27.3938 143.543 27.71 143.31 27.963C143.077 28.2159 142.802 28.4057 142.505 28.5111C142.188 28.5954 141.891 28.6586 141.574 28.6586ZM141.383 23.8734C141.15 23.8734 140.917 23.9367 140.706 24.0421C140.494 24.1475 140.303 24.3161 140.134 24.5058V27.0144C140.197 27.0776 140.261 27.1409 140.346 27.2041C140.43 27.2673 140.515 27.3306 140.621 27.3938C140.727 27.4571 140.833 27.4992 140.96 27.5203C141.087 27.5625 141.214 27.5625 141.341 27.5625C141.552 27.5625 141.743 27.5203 141.912 27.436C142.082 27.3517 142.209 27.2252 142.336 27.0565C142.442 26.8879 142.526 26.6982 142.59 26.4663C142.653 26.2344 142.675 25.9814 142.675 25.7074C142.675 25.4123 142.653 25.1382 142.59 24.9064C142.526 24.6745 142.442 24.4848 142.336 24.3372C142.23 24.1896 142.103 24.0632 141.934 23.9999C141.764 23.9156 141.574 23.8734 141.383 23.8734Z" fill="#4E4B4B"/>
<path d="M148.603 27.9207H148.582C148.497 28.0051 148.413 28.0894 148.307 28.1737C148.201 28.258 148.074 28.3424 147.926 28.4056C147.778 28.4899 147.629 28.5321 147.46 28.5953C147.291 28.6375 147.1 28.6586 146.91 28.6586C146.634 28.6586 146.402 28.6164 146.169 28.5321C145.936 28.4478 145.745 28.3213 145.576 28.1737C145.406 28.0261 145.279 27.8364 145.174 27.6045C145.089 27.3727 145.025 27.1408 145.025 26.8667C145.025 26.5716 145.089 26.2976 145.195 26.0657C145.301 25.8338 145.449 25.623 145.661 25.4544C145.851 25.2857 146.084 25.1592 146.359 25.0749C146.634 24.9906 146.931 24.9484 147.27 24.9484C147.524 24.9484 147.735 24.9695 147.947 24.9906C148.159 25.0117 148.328 25.0538 148.497 25.096V24.8641C148.497 24.7376 148.476 24.6112 148.434 24.4847C148.392 24.3582 148.328 24.2528 148.222 24.1685C148.116 24.0842 147.989 23.9998 147.841 23.9366C147.672 23.8734 147.481 23.8523 147.27 23.8523C146.994 23.8523 146.719 23.8734 146.423 23.9366C146.147 23.9998 145.851 24.0842 145.512 24.2106V23.1355C145.788 23.0091 146.105 22.9247 146.423 22.8615C146.74 22.7983 147.079 22.7561 147.418 22.7561C147.82 22.7561 148.18 22.7983 148.497 22.9037C148.815 23.0091 149.069 23.1355 149.26 23.3253C149.471 23.4939 149.62 23.7047 149.725 23.9366C149.831 24.1685 149.874 24.4425 149.874 24.7166V26.8246C149.874 27.204 149.874 27.5202 149.895 27.7732C149.895 28.0472 149.916 28.2791 149.916 28.4899H148.667L148.603 27.9207ZM148.497 26.1289C148.37 26.1079 148.222 26.0657 148.053 26.0446C147.884 26.0235 147.714 26.0025 147.545 26.0025C147.206 26.0025 146.931 26.0657 146.74 26.1922C146.55 26.3187 146.444 26.5295 146.444 26.8035C146.444 26.93 146.465 27.0354 146.507 27.1408C146.55 27.2251 146.613 27.3094 146.698 27.3727C146.783 27.4359 146.867 27.4781 146.952 27.5202C147.037 27.5624 147.164 27.5624 147.27 27.5624C147.418 27.5624 147.545 27.5413 147.672 27.4991C147.799 27.457 147.905 27.4148 148.011 27.3516C148.116 27.2883 148.201 27.2251 148.286 27.1619C148.37 27.0986 148.434 27.0354 148.497 26.9511V26.1289Z" fill="#4E4B4B"/>
</svg>
