<svg width="93" height="80" viewBox="0 0 93 80" fill="none" xmlns="http://www.w3.org/2000/svg">
<path d="M89.0991 57.526C75.8007 80.1333 29.9214 79.1466 29.9214 79.1466C29.9214 79.1466 32.5811 65.5051 42.5548 49.5471C53.1935 32.5252 60.5084 25.6099 74.4709 26.9397C89.764 28.3963 97.3128 43.5628 89.0991 57.526Z" fill="url(#paint0_linear)"/>
<path d="M59.8426 30.2315C59.8426 55.8602 29.9213 79.1467 29.9213 79.1467C29.9213 79.1467 0 55.7241 0 30.2315C0 13.5361 13.3224 0 29.9213 0C46.5202 0 59.8426 13.5361 59.8426 30.2315Z" fill="#00A9A4"/>
<path d="M35.0566 40.6441H24.9434L23.4356 44H17V43.0085L28.5842 17H31.4158L43 43.0085V44H36.5644L35.0566 40.6441ZM29.9816 27.7924L27.0764 34.8093H32.9604L29.9816 27.7924Z" fill="white"/>
<defs>
<linearGradient id="paint0_linear" x1="85.7745" y1="32.2592" x2="29.9214" y2="79.1467" gradientUnits="userSpaceOnUse">
<stop stop-opacity="0"/>
<stop offset="1" stop-opacity="0.3"/>
</linearGradient>
</defs>
</svg>
