<svg width="168" height="84" viewBox="0 0 168 84" fill="none" xmlns="http://www.w3.org/2000/svg">
<path d="M168 0.603493C166.305 0.241397 164.385 0 162.012 0C148.511 0 148.511 7.06087 135.01 7.06087C121.509 7.06087 121.509 0 108.008 0C94.5071 0 94.5071 7.06087 81.0061 7.06087C67.5051 7.06087 67.505 0 54.004 0C40.503 0 40.503 7.06087 27.002 7.06087C13.501 7.06087 13.501 0 0 0V14.1217C13.501 14.1217 13.501 21.1826 27.002 21.1826C40.503 21.1826 40.503 14.1217 54.004 14.1217C67.505 14.1217 67.5051 21.1826 81.0061 21.1826C94.5071 21.1826 94.5071 14.1217 108.008 14.1217C121.509 14.1217 121.509 21.1826 135.01 21.1826C148.511 21.1826 148.511 14.1217 162.012 14.1217C164.385 14.1217 166.305 14.3631 168 14.7252V0.603493Z" fill="#00A9A4"/>
<path d="M168 62.9687C166.305 62.6066 164.385 62.3652 162.012 62.3652C148.511 62.3652 148.511 69.4261 135.01 69.4261C121.509 69.4261 121.509 62.3652 108.008 62.3652C94.5071 62.3652 94.5071 69.4261 81.0061 69.4261C67.5051 69.4261 67.505 62.3652 54.004 62.3652C40.503 62.3652 40.503 69.4261 27.002 69.4261C13.501 69.4261 13.501 62.3652 0 62.3652V76.487C13.501 76.487 13.501 83.5478 27.002 83.5478C40.503 83.5478 40.503 76.487 54.004 76.487C67.505 76.487 67.5051 83.5478 81.0061 83.5478C94.5071 83.5478 94.5071 76.487 108.008 76.487C121.509 76.487 121.509 83.5478 135.01 83.5478C148.511 83.5478 148.511 76.487 162.012 76.487C164.385 76.487 166.305 76.7284 168 77.0905V62.9687Z" fill="#00A9A4"/>
<path d="M168 31.7861C166.305 31.424 164.385 31.1826 162.012 31.1826C148.511 31.1826 148.511 38.2435 135.01 38.2435C121.509 38.2435 121.509 31.1826 108.008 31.1826C94.5071 31.1826 94.5071 38.2435 81.0061 38.2435C67.5051 38.2435 67.505 31.1826 54.004 31.1826C40.503 31.1826 40.503 38.2435 27.002 38.2435C13.501 38.2435 13.501 31.1826 0 31.1826V45.3044C13.501 45.3044 13.501 52.3652 27.002 52.3652C40.503 52.3652 40.503 45.3044 54.004 45.3044C67.505 45.3044 67.5051 52.3652 81.0061 52.3652C94.5071 52.3652 94.5071 45.3044 108.008 45.3044C121.509 45.3044 121.509 52.3652 135.01 52.3652C148.511 52.3652 148.511 45.3044 162.012 45.3044C164.385 45.3044 166.305 45.5458 168 45.9079V31.7861Z" fill="#00A9A4"/>
</svg>
